<svg width="35" height="35" viewBox="0 0 35 35" fill="none" xmlns="http://www.w3.org/2000/svg">
<g clip-path="url(#clip0_112_22)">
<path d="M26.1434 20.464C26.1302 20.4172 26.1047 20.3747 26.0696 20.341L23.0617 17.5574H22.1239L20.9371 19.6109L24.0817 21.4621L25.8563 25.3203C25.919 25.5313 26.063 25.7088 26.2566 25.8136C26.4502 25.9185 26.6775 25.9422 26.8885 25.8794C27.0995 25.8167 27.277 25.6727 27.3819 25.4791C27.4867 25.2856 27.5104 25.0583 27.4477 24.8472L26.1434 20.464Z" fill="white"/>
<path d="M11.9301 17.5574L8.92226 20.341C8.88714 20.3747 8.86165 20.4172 8.84844 20.464L7.54687 24.8828C7.5351 24.9404 7.52869 24.999 7.52773 25.0578C7.5123 25.2616 7.57354 25.4639 7.69944 25.6249C7.82535 25.786 8.00685 25.8942 8.2084 25.9284C8.40994 25.9626 8.617 25.9204 8.789 25.8099C8.96101 25.6994 9.08557 25.5287 9.13828 25.3312L10.9211 21.4621L14.0437 19.6246L12.8516 17.5574H11.9301Z" fill="white"/>
<path d="M17.5 13.5515C17.1272 13.551 16.7625 13.6611 16.4523 13.8679C16.142 14.0747 15.9001 14.3689 15.7572 14.7133C15.6143 15.0576 15.5767 15.4367 15.6493 15.8024C15.722 16.1681 15.9014 16.504 16.1651 16.7677C16.4287 17.0313 16.7647 17.2108 17.1304 17.2834C17.4961 17.356 17.8751 17.3185 18.2195 17.1756C18.5639 17.0326 18.8581 16.7907 19.0649 16.4805C19.2717 16.1702 19.3818 15.8056 19.3813 15.4328C19.3805 14.934 19.1821 14.456 18.8294 14.1033C18.4768 13.7507 17.9987 13.5522 17.5 13.5515Z" fill="white"/>
<path d="M34.4915 9.76721H34.4587L31.8583 9.22033C30.9387 9.02796 29.9819 9.13034 29.1239 9.51291L28.5606 9.76447V9.39807C28.5606 9.32555 28.5318 9.256 28.4805 9.20472C28.4292 9.15344 28.3597 9.12463 28.2872 9.12463C28.2147 9.12463 28.1451 9.15344 28.0938 9.20472C28.0425 9.256 28.0137 9.32555 28.0137 9.39807V9.76174L27.4532 9.51018C26.5949 9.12851 25.6384 9.02616 24.7188 9.2176L22.1048 9.76447C21.5579 9.90393 21.5579 10.4399 21.5743 10.6395V10.7051C21.575 10.8847 21.6467 11.0568 21.7737 11.1838C21.9007 11.3108 22.0728 11.3825 22.2524 11.3832H28.0165V12.2199H27.6173C27.4768 12.2198 27.3417 12.2736 27.2399 12.3703C27.1381 12.4671 27.0774 12.5992 27.0704 12.7395L26.9911 14.1395H21.7958L20.363 11.6594C20.2675 11.4941 20.1305 11.3566 19.9655 11.2607C19.8005 11.1648 19.6132 11.1137 19.4223 11.1125H15.5423C15.3509 11.1132 15.1631 11.1641 14.9976 11.26C14.832 11.356 14.6946 11.4937 14.5989 11.6594L13.1688 14.1367H7.9735L7.89147 12.7367C7.88445 12.5965 7.82374 12.4643 7.72194 12.3676C7.62013 12.2709 7.48502 12.217 7.34459 12.2172H6.99459V11.3805H12.7587C12.9388 11.3805 13.1115 11.3091 13.2391 11.182C13.3667 11.0549 13.4388 10.8825 13.4395 10.7024V10.6641C13.4674 10.4807 13.4323 10.2932 13.34 10.1323C13.2476 9.97138 13.1034 9.84654 12.9309 9.77815H12.8981L10.295 9.23127C9.37546 9.03833 8.41849 9.14073 7.56061 9.52385L6.99733 9.77541V9.39807C6.99733 9.32555 6.96852 9.256 6.91724 9.20472C6.86596 9.15344 6.79641 9.12463 6.72389 9.12463C6.65137 9.12463 6.58182 9.15344 6.53054 9.20472C6.47926 9.256 6.45045 9.32555 6.45045 9.39807V9.76174L5.90358 9.51018C5.04516 9.12905 4.08883 9.02672 3.1692 9.2176L0.546935 9.76174C6.03599e-05 9.90119 6.03516e-05 10.4371 0.0137322 10.6367V10.7024C0.0137192 10.8808 0.0840372 11.0521 0.209442 11.179C0.334846 11.3059 0.50523 11.3783 0.683654 11.3805H6.44772V12.2172H6.05944C5.91901 12.217 5.7839 12.2709 5.68209 12.3676C5.58028 12.4643 5.51958 12.5965 5.51256 12.7367L5.2692 16.9176C5.26436 17.001 5.27661 17.0845 5.30521 17.1629C5.33382 17.2414 5.37816 17.3132 5.43553 17.3739C5.4929 17.4346 5.56207 17.4829 5.6388 17.5159C5.71553 17.5488 5.79819 17.5658 5.8817 17.5656H7.53873C7.62214 17.5658 7.7047 17.5489 7.78134 17.5159C7.85798 17.483 7.92709 17.4348 7.98444 17.3742C8.07783 17.2745 8.13552 17.1466 8.1485 17.0106H13.1688L14.5989 19.4906C14.6946 19.6564 14.832 19.7941 14.9976 19.89C15.1631 19.986 15.3509 20.0368 15.5423 20.0375H19.436C19.6269 20.0364 19.8141 19.9853 19.9791 19.8893C20.1442 19.7934 20.2812 19.656 20.3766 19.4906L21.8094 17.0106H26.8325C26.8481 17.1612 26.9192 17.3005 27.0319 17.4016C27.1446 17.5027 27.2909 17.5582 27.4423 17.5574H29.0993C29.1827 17.5576 29.2653 17.5407 29.3419 17.5077C29.4185 17.4748 29.4876 17.4266 29.545 17.366C29.6017 17.3048 29.6457 17.2329 29.6743 17.1545C29.7029 17.0761 29.7157 16.9928 29.7118 16.9094L29.4657 12.7285C29.4587 12.5883 29.398 12.4561 29.2962 12.3594C29.1944 12.2627 29.0592 12.2088 28.9188 12.209H28.5579V11.3805H34.3247C34.5041 11.3798 34.6758 11.308 34.8024 11.1809C34.929 11.0538 35.0001 10.8817 35.0001 10.7024V10.6641C35.0306 10.479 34.9968 10.289 34.9043 10.1258C34.8117 9.96255 34.666 9.836 34.4915 9.76721ZM17.5001 17.8637C17.0192 17.8642 16.5489 17.7221 16.1488 17.4553C15.7487 17.1886 15.4367 16.8091 15.2523 16.365C15.0679 15.9208 15.0194 15.432 15.1128 14.9603C15.2063 14.4886 15.4376 14.0552 15.7775 13.7149C16.1173 13.3747 16.5505 13.1429 17.0221 13.0489C17.4937 12.9549 17.9826 13.0028 18.4269 13.1868C18.8713 13.3707 19.2511 13.6822 19.5183 14.082C19.7856 14.4818 19.9282 14.9519 19.9282 15.4328C19.9275 16.0768 19.6715 16.6943 19.2164 17.1499C18.7612 17.6056 18.1441 17.8622 17.5001 17.8637Z" fill="white"/>
</g>
<defs>
<clipPath id="clip0_112_22">
<rect width="35" height="35" fill="white"/>
</clipPath>
</defs>
</svg>
