<svg width="90" height="60" viewBox="0 0 90 60" fill="none" xmlns="http://www.w3.org/2000/svg">
<path d="M45.0003 0.000944854C37.9977 0.000944854 30.9576 2.40991 25.6186 7.22549C21.6479 10.8069 19.241 15.2489 18.2201 19.8815C7.85945 21.6941 0 29.8554 0 39.706C0 50.8825 10.1081 60 22.5 60H70.4348C81.2233 60 90 52.0838 90 42.353C90 33.1695 82.1561 25.694 72.2079 24.8715C72.2536 18.4841 69.7383 12.0838 64.3509 7.22454C59.0174 2.41275 52.0031 0 45.0005 0L45.0003 0.000944854ZM45.0003 5.29535C50.516 5.29535 55.9778 7.14481 60.1943 10.9479C65.0666 15.3425 67.1279 21.3125 66.3699 27.0224H66.3693C66.2642 27.7751 66.5221 28.5322 67.0776 29.1014C67.633 29.6707 68.4328 29.9982 69.2734 30H70.4348C78.0728 30 84.1301 35.4636 84.1301 42.3526C84.1301 49.2417 78.0726 54.7051 70.4348 54.7051H22.5C13.2805 54.7051 5.86977 48.0204 5.86977 39.7054C5.86977 31.8525 12.4909 25.4553 20.9715 24.7603V24.7609C21.6368 24.7024 22.2598 24.4415 22.7374 24.0199C23.2158 23.5989 23.5201 23.0431 23.6006 22.4449C24.1404 18.2491 26.1992 14.1728 29.7763 10.9464C33.9886 7.14778 39.4845 5.2939 45.0001 5.2939L45.0003 5.29535ZM45.0003 21.1776C43.379 21.1776 42.0654 22.363 42.0654 23.8248V40.7817L36.2262 35.9841C35.088 35.0535 33.1064 35.1279 32.0684 36.1496C31.0312 37.1713 31.0094 38.8595 32.252 39.8998L43.0132 48.7232C43.5045 49.1288 44.0218 49.4126 45.0003 49.4126C45.9789 49.4126 46.406 49.2033 46.9874 48.7232L57.7486 39.8998C58.8766 38.9593 59.0881 37.1714 57.9322 36.1496C56.8349 35.1796 54.9127 35.0541 53.7744 35.9841L47.9352 40.781V23.8242C47.9352 22.3624 46.6217 21.177 45.0003 21.177L45.0003 21.1776Z" fill="#DC18B5"/>
</svg>
