<svg width="76" height="72" viewBox="0 0 76 72" fill="none" xmlns="http://www.w3.org/2000/svg">
<path d="M74.3321 1.17789H68.0328V0H50.3947V1.17789H44.0954C43.3985 1.17789 42.8355 1.70426 42.8355 2.35577V3.53366C42.8355 7.70674 46.1731 11.1584 50.4818 11.6974C51.0009 15.3442 54.0663 18.2326 57.9539 18.7542V24.7357H52.9144L52.4105 25.9136H44.5149L39.8118 22.6155L38.3 24.5002L40.3158 25.9136H36.5362C32.0299 25.9136 28.3066 29.0939 27.7852 33.1776C26.2875 33.6477 25.1974 34.9576 25.1974 36.5146C25.1974 38.0716 26.2874 39.3815 27.7852 39.8516C28.3066 43.9353 32.0299 47.1156 36.5362 47.1156H48.7152L53.4184 50.4137L54.929 48.529L52.9144 47.1156H62.9933C66.4669 47.1156 69.2926 49.7574 69.2926 53.005V53.2217C67.8298 53.7091 66.7729 55.0048 66.7729 56.5387C66.7729 58.0721 67.8297 59.3678 69.2926 59.8558V60.0724C69.2926 63.32 66.4669 65.9619 62.9933 65.9619H54.5938L49.8907 62.6638L48.3789 64.5484L50.3947 65.9619H26.2255C25.7041 64.5942 24.3182 63.6061 22.6775 63.6061C20.5937 63.6061 18.8979 65.1915 18.8979 67.1397C18.8979 69.088 20.5937 70.6734 22.6775 70.6734C24.3177 70.6734 25.7035 69.6853 26.2255 68.3176H50.3947L48.3789 69.7311L49.8896 71.6157L54.5927 68.3176H62.9933C67.8551 68.3176 71.8124 64.6179 71.8124 60.0724V59.8558C73.2752 59.3683 74.3321 58.0727 74.3321 56.5387C74.3321 55.0053 73.2753 53.7096 71.8124 53.2217V53.005C71.8124 48.4596 67.8551 44.7598 62.9933 44.7598H52.9144L54.9302 43.3463L53.4184 41.4617L48.7152 44.7598H36.5362C33.4039 44.7598 30.819 42.6054 30.3375 39.8022C31.7498 39.2895 32.7566 38.0144 32.7566 36.5146C32.7566 35.0149 31.7498 33.7398 30.3375 33.227C30.819 30.4238 33.4039 28.2694 36.5362 28.2694H40.3158L38.3 29.6829L39.8107 31.5675L44.5138 28.2694H51.4026L50.3947 30.6252H68.0328L65.513 24.7357H60.4736V18.7542C64.3617 18.2326 67.427 15.3452 67.9457 11.6974C72.2545 11.1584 75.5919 7.70674 75.5919 3.53366V2.35577C75.5919 1.70426 75.0289 1.17789 74.3321 1.17789ZM50.3947 9.30422C47.5235 8.7563 45.3552 6.37687 45.3552 3.53366H50.3947V9.30422ZM22.6777 68.317C21.9825 68.317 21.4178 67.789 21.4178 67.1391C21.4178 66.4892 21.9825 65.9612 22.6777 65.9612C23.3729 65.9612 23.9375 66.4892 23.9375 67.1391C23.9375 67.789 23.3729 68.317 22.6777 68.317ZM70.5525 55.3602C71.2477 55.3602 71.8124 55.8882 71.8124 56.5381C71.8124 57.1881 71.2477 57.716 70.5525 57.716C69.8573 57.716 69.2926 57.1881 69.2926 56.5381C69.2926 55.8882 69.8573 55.3602 70.5525 55.3602ZM28.977 37.6919C28.2818 37.6919 27.7171 37.164 27.7171 36.5141C27.7171 35.8641 28.2818 35.3362 28.977 35.3362C29.6722 35.3362 30.2369 35.8641 30.2369 36.5141C30.2369 37.164 29.6722 37.6919 28.977 37.6919ZM62.3281 12.9563L59.2139 11.3462L56.0996 12.9563L56.6941 9.54734L54.1744 7.1326L57.6565 6.63568L59.2139 3.5332L60.7712 6.63461L64.2533 7.13258L61.7336 9.54731L62.3281 12.9563ZM68.0329 9.30382V3.53325H73.0724C73.0724 6.37647 70.9041 8.75593 68.0329 9.30382Z" fill="#DC18B5"/>
<path d="M15.1183 45.9374C15.1183 43.9855 13.4265 42.4037 11.3388 42.4037H3.77959C1.69182 42.4037 0 43.9855 0 45.9374V56.5384H2.51972V70.673H12.5986V56.5384H15.1183V45.9374Z" fill="#DC18B5"/>
<path d="M12.5989 37.6923C12.5989 40.2942 10.3424 42.4039 7.55948 42.4039C4.77655 42.4039 2.52002 40.2942 2.52002 37.6923C2.52002 35.0905 4.77655 32.9808 7.55948 32.9808C10.3424 32.9808 12.5989 35.0905 12.5989 37.6923Z" fill="#DC18B5"/>
</svg>
