<svg width="64" height="61" viewBox="0 0 64 61" fill="none" xmlns="http://www.w3.org/2000/svg">
<path d="M63.3343 0.312888C63.0097 0.00500927 62.5191 -0.0847332 62.0989 0.0842424L1.28294 24.4628C0.936739 24.6007 0.686649 24.8938 0.615694 25.2423C0.543737 25.5907 0.659473 25.9511 0.924656 26.2027C1.10028 26.3693 1.10379 26.3716 26.5946 35.1627L35.7791 59.1221C35.9381 59.535 36.3462 59.8138 36.8107 59.8257H36.8389C37.2907 59.8257 37.7014 59.5689 37.877 59.1722L63.574 1.48615C63.7521 1.08519 63.6575 0.620741 63.333 0.312851L63.3343 0.312888ZM4.80357 25.3733L57.6584 4.18657L27.1861 33.0925C24.0365 32.0061 10.6134 27.3773 4.80357 25.3735V25.3733ZM36.9184 55.8348L28.7801 34.6041L59.2525 5.69694L36.9184 55.8348Z" fill="#DC18B5"/>
<path d="M23.0034 36.5441C22.1872 37.8348 21.4233 38.8602 20.7128 39.6735C19.4911 38.6663 18.392 38.135 18.2985 38.0902C15.7498 36.883 14.4088 37.409 13.1789 38.5732C12.5328 39.1861 12.1036 40.0821 11.9999 41.0305C11.8837 42.0912 12.2053 43.0673 12.8816 43.7079C13.0235 43.8425 14.3298 45.0168 16.564 44.7547C17.9322 44.5953 19.312 43.9313 20.6908 42.7747C21.209 43.4559 21.6343 44.2554 21.8189 45.1666C22.2436 47.2612 21.2991 49.561 19.0045 52.0097C18.9718 52.045 15.7764 55.4633 11.865 55.7553C13.2659 54.6508 14.1647 53.4617 14.5521 52.1925C15.3748 49.4989 13.5638 47.5605 13.4475 47.4406C12.3239 46.3747 10.8289 45.7876 9.23977 45.7876C7.6491 45.7876 6.15569 46.3748 5.03444 47.4406C3.8645 48.5485 3.21743 50.0807 3.25814 51.645C3.29638 53.1314 3.94099 54.4861 5.07424 55.4589C5.48787 55.814 5.91057 56.1305 6.34232 56.4083C4.69987 57.1119 2.62368 57.8251 0 58.5167L0.602839 60.5768C3.97535 59.6885 6.75502 58.6895 8.9304 57.5863C9.87391 57.8503 10.8466 57.9553 11.8576 57.8994C16.7654 57.6288 20.5449 53.5905 20.6968 53.4249C23.4765 50.4588 24.5992 47.5441 24.0345 44.7631C23.7517 43.3669 23.0729 42.1864 22.2794 41.2241C23.1675 40.2341 24.0546 39.0398 24.9373 37.6431L23.0034 36.5441ZM16.3486 42.6268C15.1615 42.7853 14.4897 42.2077 14.4751 42.1972C14.0434 41.7876 14.2079 40.6234 14.774 40.0865C15.1122 39.7657 15.3557 39.5347 15.7965 39.5347C16.1337 39.5347 16.5891 39.6693 17.2911 40.0029C17.3092 40.0115 18.1757 40.4297 19.1529 41.2187C18.0071 42.1681 17.0612 42.5295 16.3485 42.6268H16.3486ZM8.72911 55.234C7.9899 54.9185 7.27383 54.464 6.58645 53.875C5.91568 53.2989 5.53374 52.4893 5.51009 51.5933C5.48493 50.6114 5.89202 49.6506 6.62821 48.9532C7.32616 48.2912 8.2525 47.927 9.23978 47.927C10.226 47.927 11.1549 48.2917 11.8077 48.9074C11.8515 48.9547 12.8659 50.0869 12.3768 51.6288C12.1071 52.4798 11.2526 53.7897 8.72914 55.2341L8.72911 55.234Z" fill="#DC18B5"/>
</svg>
