<svg width="256" height="107" viewBox="0 0 256 107" fill="none" xmlns="http://www.w3.org/2000/svg">
<path d="M39.6172 95H32.1172L32.1641 89.0938H39.6172C41.3203 89.0938 42.7578 88.7031 43.9297 87.9219C45.1016 87.125 45.9922 85.9531 46.6016 84.4062C47.2109 82.8438 47.5156 80.9453 47.5156 78.7109V77.1406C47.5156 75.4531 47.3438 73.9688 47 72.6875C46.6562 71.3906 46.1484 70.3047 45.4766 69.4297C44.8047 68.5547 43.9688 67.8984 42.9688 67.4609C41.9844 67.0234 40.8516 66.8047 39.5703 66.8047H31.9766V60.875H39.5703C41.8828 60.875 43.9922 61.2656 45.8984 62.0469C47.8203 62.8281 49.4766 63.9453 50.8672 65.3984C52.2734 66.8516 53.3594 68.5703 54.125 70.5547C54.8906 72.5391 55.2734 74.75 55.2734 77.1875V78.7109C55.2734 81.1328 54.8906 83.3438 54.125 85.3438C53.3594 87.3281 52.2734 89.0469 50.8672 90.5C49.4766 91.9375 47.8281 93.0469 45.9219 93.8281C44.0156 94.6094 41.9141 95 39.6172 95ZM36.4531 60.875V95H28.8125V60.875H36.4531ZM59.9375 60.875H73.0391C75.6484 60.875 77.9062 61.2656 79.8125 62.0469C81.7344 62.8281 83.2109 63.9844 84.2422 65.5156C85.2734 67.0469 85.7891 68.9375 85.7891 71.1875C85.7891 73.0625 85.4844 74.6562 84.875 75.9688C84.2656 77.2812 83.4062 78.3672 82.2969 79.2266C81.2031 80.0859 79.9219 80.7812 78.4531 81.3125L75.9688 82.6719H64.8125L64.7656 76.7422H73.0625C74.2031 76.7422 75.1484 76.5391 75.8984 76.1328C76.6484 75.7266 77.2109 75.1562 77.5859 74.4219C77.9766 73.6719 78.1719 72.7969 78.1719 71.7969C78.1719 70.7656 77.9766 69.875 77.5859 69.125C77.1953 68.375 76.6172 67.8047 75.8516 67.4141C75.1016 67.0078 74.1641 66.8047 73.0391 66.8047H67.5781V95H59.9375V60.875ZM78.8281 95L71.1641 79.8359L79.2266 79.8125L87.0078 94.6484V95H78.8281ZM119.422 77.1875V78.7109C119.422 81.3047 119.062 83.6328 118.344 85.6953C117.641 87.7578 116.633 89.5156 115.32 90.9688C114.023 92.4219 112.477 93.5391 110.68 94.3203C108.898 95.0859 106.922 95.4688 104.75 95.4688C102.578 95.4688 100.594 95.0859 98.7969 94.3203C97 93.5391 95.4375 92.4219 94.1094 90.9688C92.7969 89.5156 91.7812 87.7578 91.0625 85.6953C90.3438 83.6328 89.9844 81.3047 89.9844 78.7109V77.1875C89.9844 74.5938 90.3438 72.2656 91.0625 70.2031C91.7812 68.125 92.7891 66.3594 94.0859 64.9062C95.3984 63.4531 96.9531 62.3438 98.75 61.5781C100.547 60.7969 102.531 60.4062 104.703 60.4062C106.875 60.4062 108.859 60.7969 110.656 61.5781C112.453 62.3438 114 63.4531 115.297 64.9062C116.609 66.3594 117.625 68.125 118.344 70.2031C119.062 72.2656 119.422 74.5938 119.422 77.1875ZM111.711 78.7109V77.1406C111.711 75.4062 111.555 73.875 111.242 72.5469C110.93 71.2031 110.477 70.0781 109.883 69.1719C109.289 68.2656 108.555 67.5859 107.68 67.1328C106.805 66.6641 105.812 66.4297 104.703 66.4297C103.547 66.4297 102.539 66.6641 101.68 67.1328C100.82 67.5859 100.094 68.2656 99.5 69.1719C98.9219 70.0781 98.4766 71.2031 98.1641 72.5469C97.8672 73.875 97.7188 75.4062 97.7188 77.1406V78.7109C97.7188 80.4297 97.8672 81.9609 98.1641 83.3047C98.4766 84.6328 98.9297 85.7578 99.5234 86.6797C100.117 87.6016 100.844 88.2969 101.703 88.7656C102.578 89.2344 103.594 89.4688 104.75 89.4688C105.859 89.4688 106.844 89.2344 107.703 88.7656C108.578 88.2969 109.312 87.6016 109.906 86.6797C110.5 85.7578 110.945 84.6328 111.242 83.3047C111.555 81.9609 111.711 80.4297 111.711 78.7109ZM152.258 60.875V95H144.641L131.75 72.9453V95H124.109V60.875H131.75L144.664 82.9297V60.875H152.258ZM181.109 89.0938V95H162.945V89.0938H181.109ZM165.547 60.875V95H157.906V60.875H165.547ZM178.766 74.6094V80.3281H162.945V74.6094H178.766ZM181.133 60.875V66.8047H162.945V60.875H181.133ZM208.062 89.0938V95H189.898V89.0938H208.062ZM192.5 60.875V95H184.859V60.875H192.5ZM205.719 74.6094V80.3281H189.898V74.6094H205.719ZM208.086 60.875V66.8047H189.898V60.875H208.086Z" fill="#D159B9"/>
<path fill-rule="evenodd" clip-rule="evenodd" d="M176.022 49C164.871 35.7029 147.464 27 127.5 27C107.536 27 90.1289 35.7029 78.9784 49H66.5195C79.0938 29.8038 101.701 17 127.5 17C153.299 17 175.906 29.8038 188.481 49H176.022Z" fill="#D159B9"/>
<line x1="49" y1="19" x2="207" y2="19" stroke="#D159B9" stroke-width="10"/>
<path d="M44 20C44 22.7614 46.2386 25 49 25C51.7614 25 54 22.7614 54 20H44ZM54 14V9L44 9V14H54ZM54 20V14H44V20H54Z" fill="#D159B9"/>
<path d="M202 20C202 22.7614 204.239 25 207 25C209.761 25 212 22.7614 212 20H202ZM212 14V9L202 9V14H212ZM212 20V14H202V20H212Z" fill="#D159B9"/>
<path fill-rule="evenodd" clip-rule="evenodd" d="M55 6C55 2.68629 52.3137 0 49 0C45.6863 0 43 2.68629 43 6H55Z" fill="#D159B9"/>
<path fill-rule="evenodd" clip-rule="evenodd" d="M213 6C213 2.68629 210.09 0 206.5 0C202.91 0 200 2.68629 200 6H213Z" fill="#D159B9"/>
<ellipse cx="78" cy="3.5" rx="21" ry="1.5" fill="#D159B9"/>
<ellipse cx="235" cy="3.5" rx="21" ry="1.5" fill="#D159B9"/>
<ellipse cx="21" cy="3.5" rx="21" ry="1.5" fill="#D159B9"/>
<ellipse cx="178" cy="3.5" rx="21" ry="1.5" fill="#D159B9"/>
</svg>
